<svg xmlns="http://www.w3.org/2000/svg" width="170" height="170" viewBox="0 0 170 170" version="1.1">
	<path d="M 0 85.006 L 0 170.011 85.250 169.756 L 170.500 169.500 170.756 84.750 L 171.011 0 85.506 0 L 0 0 0 85.006 M 0.478 85.500 C 0.478 132.250, 0.600 151.229, 0.750 127.675 C 0.899 104.121, 0.899 65.871, 0.750 42.675 C 0.600 19.479, 0.478 38.750, 0.478 85.500 M 10 85 L 10 160 18.250 160 L 26.500 160 26.548 156.750 C 26.574 154.963, 26.955 150.977, 27.395 147.894 L 28.194 142.289 25.081 141.666 C 21.046 140.859, 20 138.056, 20 128.046 C 20 121.831, 20.393 119.736, 21.912 117.861 C 23.725 115.623, 24.408 115.504, 35.069 115.585 C 49.501 115.693, 50 116.145, 50 129.111 C 50 136.667, 49.700 138.300, 48 140 C 46.900 141.100, 45.052 142, 43.893 142 C 42.411 142, 41.960 142.455, 42.374 143.533 C 43.600 146.728, 45.315 158.018, 44.672 158.661 C 43.533 159.801, 42.841 158.379, 40.602 150.298 C 38.540 142.857, 38.300 142.486, 35.344 142.196 C 32.260 141.893, 32.242 141.920, 30.982 148.696 C 30.287 152.438, 29.342 156.512, 28.884 157.750 L 28.050 160 74.025 160 C 114.225 160, 120 159.812, 120 158.500 C 120 157.675, 120.693 157, 121.540 157 C 124.363 157, 130.805 153.083, 132.960 150.056 C 134.131 148.412, 136.303 146.485, 137.786 145.774 C 139.490 144.957, 140.719 143.379, 141.124 141.490 C 141.475 139.846, 141.817 127.207, 141.882 113.405 C 142.017 84.726, 141.937 85, 150.174 85 C 158.100 85, 158 84.597, 158 116.629 C 158 137.051, 157.676 144.924, 156.800 145.800 C 156.101 146.499, 152.654 147.015, 148.550 147.035 C 140.900 147.074, 138.292 148.066, 135.080 152.162 C 133.932 153.627, 130.656 155.989, 127.800 157.412 L 122.607 160 141.304 160 L 160 160 160 85 L 160 10 85 10 L 10 10 10 85 M 33.630 13.250 C 33.299 14.488, 33.021 26.914, 33.014 40.865 L 33 66.230 27.250 65.514 C 20.832 64.714, 18.505 63.759, 17.669 61.579 C 17.357 60.767, 16.827 50.292, 16.490 38.301 C 15.841 15.160, 15.540 12, 13.981 12 C 12.841 12, 12.768 49.288, 13.890 58.278 C 14.913 66.474, 17.035 68.324, 25.995 68.830 C 32.959 69.223, 33 69.242, 33 72.113 C 33 74.922, 32.857 75.002, 27.750 75.060 C 21.585 75.130, 13.284 76.383, 12.269 77.397 C 10.570 79.097, 15.060 79.494, 34.917 79.403 C 54.689 79.313, 58.304 78.971, 56.676 77.343 C 55.705 76.372, 47.265 75.128, 41.184 75.060 C 35.986 75.001, 35.874 74.939, 36.184 72.250 C 36.482 69.653, 36.837 69.472, 42.548 69 C 50.272 68.361, 53.690 66.170, 54.609 61.268 C 55.740 55.242, 55.645 13.061, 54.500 12.762 C 53.871 12.597, 53.204 21.211, 52.702 36 C 51.775 63.294, 51.572 63.939, 43.494 65.293 C 40.855 65.735, 38.089 65.865, 37.348 65.580 C 36.263 65.164, 36 59.782, 36 38.031 C 36 13.535, 35.357 6.808, 33.630 13.250 M 133 13.855 C 133 16.647, 132.852 16.725, 126.355 17.331 C 118.791 18.038, 116.490 19.573, 115.014 24.900 C 113.712 29.600, 111.467 74.171, 112.409 76.617 C 113.957 80.634, 114.748 75.185, 115.405 56 C 116.478 24.624, 117.404 21, 124.348 21 L 127.314 21 126.721 50 C 126.395 65.950, 126.497 79, 126.947 79 C 128.483 79, 128.939 73.512, 129.630 46.750 L 130.321 20 134.007 20 L 137.692 20 138.301 38.250 C 139.006 59.394, 140.789 78.062, 142.241 79.500 C 143.312 80.561, 143.069 73.316, 140.938 40.762 C 140.299 31.006, 140.029 22.368, 140.336 21.566 C 140.775 20.423, 141.598 20.311, 144.161 21.046 C 150.283 22.802, 150.816 24.100, 151.948 40 C 152.516 47.975, 152.992 59.225, 153.005 65 C 153.019 70.775, 153.450 76.162, 153.962 76.972 C 156.023 80.231, 156.319 73.968, 155.198 50.841 C 153.682 19.577, 153.280 18.626, 141.046 17.347 C 135.209 16.737, 135 16.616, 135 13.858 C 135 12.286, 134.550 11, 134 11 C 133.450 11, 133 12.285, 133 13.855 M 83.639 12.694 C 83.288 13.046, 83 14.097, 83 15.031 C 83 16.893, 77.752 18, 68.928 18 C 65.013 18, 64.018 17.634, 63.500 16 C 63.151 14.900, 62.503 14, 62.060 14 C 60.567 14, 60.087 21.439, 60.880 32.306 C 62.026 48.014, 61.229 47.500, 84.423 47.500 C 106.713 47.500, 106.424 47.639, 107.473 36.447 C 108.232 28.341, 107.259 14, 105.950 14 C 105.502 14, 104.849 14.900, 104.500 16 C 103.972 17.663, 102.992 17.998, 98.683 17.989 C 90.088 17.971, 86 16.984, 86 14.928 C 86 12.951, 84.655 11.678, 83.639 12.694 M 64.688 21.646 C 64.309 22.024, 64 23.069, 64 23.969 C 64 25.429, 66.155 25.605, 84.044 25.605 C 103.686 25.605, 104.081 25.564, 103.794 23.552 C 103.511 21.576, 102.798 21.490, 84.438 21.229 C 73.953 21.080, 65.066 21.268, 64.688 21.646 M 64.688 29.646 C 64.309 30.024, 64 31.271, 64 32.417 C 64 34.458, 64.399 34.500, 84.042 34.500 L 104.085 34.500 103.792 32 L 103.500 29.500 84.438 29.229 C 73.953 29.080, 65.066 29.268, 64.688 29.646 M 65 39.800 C 65 43.614, 66.811 44, 84.732 44 C 101.788 44, 102.078 43.964, 102.915 41.750 C 103.383 40.513, 103.566 39.163, 103.324 38.750 C 103.081 38.337, 94.359 38, 83.941 38 C 66.368 38, 65 38.130, 65 39.800 M 63.074 52.877 C 61.740 53.250, 60.448 54.156, 60.204 54.889 C 59.845 55.964, 62.024 56.152, 71.425 55.853 L 83.091 55.483 82.795 58.491 L 82.500 61.500 72.798 62.002 C 67.171 62.293, 62.586 63.014, 61.881 63.719 C 59.842 65.758, 63.357 66.344, 73.598 65.671 L 83 65.054 83 70.125 L 83 75.197 71.628 74.487 C 63.649 73.988, 60.051 74.108, 59.568 74.890 C 58.116 77.240, 64.813 78.130, 84.014 78.140 C 104.905 78.150, 109 77.675, 109 75.239 C 109 73.899, 107.485 73.782, 97.500 74.352 L 86 75.009 86 69.938 L 86 64.866 96.500 65.570 C 103.772 66.057, 107 65.942, 107 65.195 C 107 63.211, 104.559 62.536, 95.500 62.017 L 86.500 61.500 86.205 58.491 L 85.909 55.483 97.575 55.853 C 107.091 56.155, 109.158 55.973, 108.788 54.862 C 108.539 54.113, 107.022 53.216, 105.418 52.868 C 101.486 52.017, 66.126 52.024, 63.074 52.877 M 33.500 82 C 32.960 83.701, 31.987 84, 26.998 84 C 19.234 84, 16.198 85.279, 14.550 89.244 C 12.498 94.179, 11.149 158.449, 13.111 157.800 C 14.792 157.245, 15.686 145.430, 15.934 120.500 C 16.154 98.305, 17.060 90.161, 19.506 88.372 C 20.864 87.379, 24.906 87, 34.126 87 C 47.645 87, 51.282 87.729, 52.454 90.673 C 52.854 91.678, 53.602 106.675, 54.116 124 C 54.631 141.325, 55.251 156.063, 55.494 156.750 C 55.738 157.438, 56.463 158, 57.105 158 C 58.535 158, 57.433 96.691, 55.896 90.757 C 54.643 85.920, 51.012 84, 43.117 84 C 38.013 84, 37.042 83.706, 36.500 82 C 36.151 80.900, 35.476 80, 35 80 C 34.524 80, 33.849 80.900, 33.500 82 M 61.695 83.700 C 60.702 83.957, 60.062 84.686, 60.273 85.319 C 60.805 86.916, 107.181 86.958, 107.712 85.363 C 107.916 84.753, 107.051 83.978, 105.791 83.641 C 103.170 82.939, 64.431 82.991, 61.695 83.700 M 114.200 87.473 C 111.665 90.696, 110.433 107.430, 111.335 126.393 C 112.120 142.903, 112.198 143.006, 123.905 142.985 C 128.632 142.976, 132.995 142.639, 133.600 142.235 C 136.547 140.267, 137.037 136.505, 137.266 114.116 C 137.490 92.150, 137.409 91.037, 135.396 88.329 C 133.409 85.658, 132.813 85.484, 124.748 85.213 C 116.621 84.939, 116.106 85.050, 114.200 87.473 M 41.199 89.990 C 40.768 91.155, 39.345 92.646, 38.037 93.304 C 34.381 95.142, 34.320 97, 37.917 97 C 41.697 97, 42.025 98.746, 38.327 99.184 C 34.434 99.644, 34.091 102, 37.917 102 C 40.539 102, 41 102.374, 41 104.500 C 41 107.481, 39.033 107.844, 38.290 105 C 38.002 103.900, 37.422 103, 37 103 C 35.743 103, 35.237 106.410, 36.135 108.835 C 36.899 110.902, 37.509 111.071, 43.236 110.798 L 49.500 110.500 49.810 106.750 C 50.135 102.822, 48.612 101.552, 47.710 105 C 46.939 107.950, 44 107.554, 44 104.500 C 44 102.298, 44.428 102, 47.583 102 C 52.102 102, 51.757 99.639, 47.173 99.187 C 45.428 99.014, 44 98.416, 44 97.857 C 44 97.248, 45.203 97.105, 47 97.500 C 49.546 98.059, 50 97.859, 50 96.177 C 50 94.875, 48.972 93.837, 47 93.150 C 45.350 92.575, 44 91.432, 44 90.611 C 44 88.149, 42.041 87.715, 41.199 89.990 M 116.571 89.571 C 115.265 90.877, 115 94.031, 115 108.246 L 115 125.349 117.500 123 C 119.969 120.681, 120 120.447, 120 104.326 C 120 94.946, 119.605 88, 119.071 88 C 118.561 88, 117.436 88.707, 116.571 89.571 M 123 104.655 L 123 121.310 119 125.115 C 115.640 128.311, 115 129.557, 115 132.901 C 115 135.090, 115.400 137.129, 115.889 137.431 C 116.871 138.039, 121.289 132.655, 123.138 128.596 C 124.650 125.278, 125.477 125.323, 126.918 128.803 C 127.557 130.345, 129.299 132.926, 130.790 134.540 L 133.500 137.473 133.808 133.224 C 134.081 129.463, 133.708 128.590, 130.558 125.620 L 127 122.264 127 105.132 C 127 88.667, 126.922 88, 125 88 C 123.080 88, 123 88.667, 123 104.655 M 129.814 99.750 C 129.394 114.121, 130.165 121.594, 132.287 123.716 C 133.904 125.333, 134 124.479, 134 108.414 C 134 92.115, 133.497 89, 130.864 89 C 130.460 89, 129.987 93.838, 129.814 99.750 M 145.714 89.620 C 145.321 90.012, 145 102.400, 145 117.148 L 145 143.962 147.574 144.608 C 148.989 144.963, 151.247 144.753, 152.590 144.141 L 155.033 143.028 154.766 116.264 L 154.500 89.500 150.464 89.203 C 148.244 89.040, 146.106 89.227, 145.714 89.620 M 149 115.441 C 149 138.813, 149.536 144.178, 151.546 140.926 C 152.540 139.316, 150.929 90, 149.882 90 C 149.396 90, 149 101.411, 149 115.441 M 20.104 91.914 C 17.997 93.249, 19.589 96, 22.469 96 C 25.958 96, 25.775 98.778, 22.259 99.184 C 18.212 99.651, 17.973 102.845, 21.925 103.635 C 25.839 104.418, 25.849 105.808, 21.949 107.168 C 19.959 107.861, 19.007 108.800, 19.212 109.866 C 19.461 111.165, 20.905 111.533, 26.258 111.662 C 29.961 111.751, 33.257 111.393, 33.582 110.868 C 34.440 109.479, 32.066 107, 29.878 107 C 27.072 107, 27.612 104.314, 30.566 103.573 C 33.740 102.776, 33.507 99.647, 30.240 99.180 C 27.612 98.806, 27.183 96.007, 29.750 95.985 C 30.712 95.976, 32.175 95.518, 33 94.966 C 36.922 92.341, 24.189 89.328, 20.104 91.914 M 65.323 91.696 C 64.125 91.929, 62.612 92.763, 61.960 93.548 C 60.363 95.473, 62.892 96.442, 67.544 95.687 C 70.792 95.160, 71 95.293, 71 97.908 C 71 101.573, 73.886 104.041, 78.969 104.723 C 82.055 105.137, 83.016 105.682, 82.787 106.888 C 82.545 108.164, 80.772 108.604, 74.284 109 L 66.087 109.500 65.447 105.699 C 65.095 103.608, 64.364 102.045, 63.824 102.225 C 63.234 102.422, 62.720 110.949, 62.540 123.527 C 62.375 135.062, 61.891 147.823, 61.464 151.885 C 60.825 157.964, 60.932 159.189, 62.068 158.811 C 64.291 158.070, 65.041 152.662, 65.679 132.750 L 66.280 114 74.640 114 C 81.055 114, 83 114.319, 83 115.371 C 83 116.260, 81.255 116.974, 78.041 117.400 C 75.314 117.762, 72.727 118.607, 72.293 119.279 C 71.104 121.119, 69.071 156.346, 70.091 157.433 C 72.447 159.946, 73.821 151.814, 73.927 134.725 C 73.999 123.034, 74.018 122.944, 76.565 121.975 C 81.956 119.926, 81.853 119.604, 82.188 139.419 C 82.360 149.550, 82.862 158.199, 83.304 158.640 C 85.259 160.588, 85.970 155.306, 85.985 138.750 L 86 121 88.750 121.015 C 90.263 121.024, 92.006 121.361, 92.624 121.765 C 93.300 122.207, 94.039 127.887, 94.477 136 C 95.358 152.320, 96.100 157.200, 97.788 157.763 C 98.811 158.104, 98.951 154.889, 98.483 141.845 C 97.606 117.406, 98.165 118.962, 89.750 117.542 C 87.132 117.100, 85.999 116.395, 85.998 115.205 C 85.996 113.716, 86.989 113.541, 93.848 113.821 L 101.701 114.143 102.411 131.821 C 103.233 152.286, 104.501 160.902, 106.398 158.917 C 106.617 158.687, 106.551 145.772, 106.250 130.216 C 105.864 110.285, 105.378 102.041, 104.601 102.299 C 103.996 102.500, 103.272 103.978, 102.993 105.582 C 102.486 108.499, 102.484 108.500, 94.243 108.790 C 86.517 109.063, 86 108.953, 86 107.040 C 86 105.545, 86.651 105, 88.435 105 C 93.298 105, 95.853 103.261, 96.944 99.207 C 97.951 95.468, 98.141 95.330, 102.143 95.413 C 107.565 95.526, 108.290 93.452, 103.312 92.070 C 99.719 91.072, 70.029 90.780, 65.323 91.696 M 75.216 95.825 C 74.496 96.293, 74.220 97.409, 74.587 98.366 C 75.150 99.832, 76.525 100.032, 84.371 99.786 C 92.738 99.524, 93.500 99.333, 93.500 97.500 C 93.500 95.677, 92.748 95.477, 85 95.245 C 80.325 95.105, 75.922 95.365, 75.216 95.825 M 25.750 120.689 C 24.788 120.941, 24 121.676, 24 122.323 C 24 123.154, 27.232 123.500, 35 123.500 C 42.530 123.500, 46 123.142, 46 122.367 C 46 121.743, 44.987 120.962, 43.750 120.630 C 41.209 119.949, 28.421 119.991, 25.750 120.689 M 23.999 128.717 C 23.999 130.332, 25.061 130.484, 35.249 130.336 C 43.886 130.210, 46.500 129.861, 46.500 128.836 C 46.500 127.817, 43.827 127.433, 35.250 127.217 C 25.018 126.960, 24 127.096, 23.999 128.717 M 124.015 131.715 C 124.007 132.384, 122.603 134.521, 120.896 136.465 L 117.793 140 124.396 140 C 128.028 140, 130.983 139.662, 130.962 139.250 C 130.895 137.908, 124.030 130.463, 124.015 131.715 M 24.190 135.750 C 24.486 137.284, 25.821 137.500, 35 137.500 C 44.179 137.500, 45.514 137.284, 45.810 135.750 C 46.114 134.168, 45.078 134, 35 134 C 24.922 134, 23.886 134.168, 24.190 135.750" stroke="none" fill="black" fill-rule="evenodd"/>
</svg>